<?xml version="1.0" standalone="no"?>
<!DOCTYPE svg PUBLIC "-//W3C//DTD SVG 20010904//EN"
        "http://www.w3.org/TR/2001/REC-SVG-20010904/DTD/svg10.dtd">
<svg version="1.0" xmlns="http://www.w3.org/2000/svg"
     width="512.000000pt" height="512.000000pt" viewBox="0 0 512.000000 512.000000"
     preserveAspectRatio="xMidYMid meet">
    <metadata>
        Created by potrace 1.11, written by Peter Selinger 2001-2013
    </metadata>
    <g transform="translate(0.000000,512.000000) scale(0.100000,-0.100000)"
       fill="#000000" stroke="none">
        <path d="M2463 5105 c-118 -32 -205 -105 -257 -215 -28 -59 -31 -74 -31 -165
0 -91 3 -106 31 -165 144 -299 564 -299 708 0 28 59 31 74 31 165 0 91 -3 106
-31 165 -34 72 -105 150 -165 180 -52 27 -144 50 -194 49 -22 0 -64 -7 -92
-14z"/>
        <path d="M3506 4856 c-100 -46 -166 -186 -137 -294 20 -74 83 -136 231 -229
178 -112 264 -177 389 -298 389 -376 606 -858 628 -1395 23 -572 -194 -1125
-603 -1534 -175 -175 -347 -296 -575 -405 -786 -375 -1714 -214 -2333 405
-407 407 -627 965 -602 1524 10 239 42 402 122 630 68 192 64 267 -17 350 -88
90 -202 114 -300 62 -66 -34 -87 -64 -139 -200 -189 -486 -219 -1042 -86
-1556 46 -178 93 -302 186 -491 246 -503 652 -909 1155 -1155 262 -129 476
-197 760 -242 199 -32 547 -31 750 0 277 43 498 113 750 237 260 127 439 253
643 450 219 211 368 409 502 667 261 503 347 1062 249 1618 -45 255 -108 447
-224 685 -129 263 -275 466 -489 681 -183 182 -360 315 -586 439 -95 52 -112
58 -175 61 -44 2 -81 -1 -99 -10z"/>
        <path d="M660 4452 c0 -12 96 -164 177 -280 161 -232 470 -643 862 -1147 437
-563 545 -700 575 -733 130 -139 351 -163 507 -54 204 143 227 439 47 608 -31
29 -172 140 -774 611 -898 702 -1394 1056 -1394 995z"/>
    </g>
</svg>
